<svg xmlns="http://www.w3.org/2000/svg" style="display: block;">
  <!-- calender icon -->
  <symbol id="icon-calender" viewBox="0 0 610.398 610.398" xml:space="preserve" class="icon-calender" fill="currentColor">
    <g>
	<g>
		<path d="M159.567,0h-15.329c-1.956,0-3.811,0.411-5.608,0.995c-8.979,2.912-15.616,12.498-15.616,23.997v10.552v27.009v14.052
			c0,2.611,0.435,5.078,1.066,7.44c2.702,10.146,10.653,17.552,20.158,17.552h15.329c11.724,0,21.224-11.188,21.224-24.992V62.553
			V35.544V24.992C180.791,11.188,171.291,0,159.567,0z"/>
		<path d="M461.288,0h-15.329c-11.724,0-21.224,11.188-21.224,24.992v10.552v27.009v14.052c0,13.804,9.5,24.992,21.224,24.992
			h15.329c11.724,0,21.224-11.188,21.224-24.992V62.553V35.544V24.992C482.507,11.188,473.007,0,461.288,0z"/>
		<path d="M539.586,62.553h-37.954v14.052c0,24.327-18.102,44.117-40.349,44.117h-15.329c-22.247,0-40.349-19.79-40.349-44.117
			V62.553H199.916v14.052c0,24.327-18.102,44.117-40.349,44.117h-15.329c-22.248,0-40.349-19.79-40.349-44.117V62.553H70.818
			c-21.066,0-38.15,16.017-38.15,35.764v476.318c0,19.784,17.083,35.764,38.15,35.764h468.763c21.085,0,38.149-15.984,38.149-35.764
			V98.322C577.735,78.575,560.671,62.553,539.586,62.553z M527.757,557.9l-446.502-0.172V173.717h446.502V557.9z"/>
		<path d="M353.017,266.258h117.428c10.193,0,18.437-10.179,18.437-22.759s-8.248-22.759-18.437-22.759H353.017
			c-10.193,0-18.437,10.179-18.437,22.759C334.58,256.074,342.823,266.258,353.017,266.258z"/>
		<path d="M353.017,348.467h117.428c10.193,0,18.437-10.179,18.437-22.759c0-12.579-8.248-22.758-18.437-22.758H353.017
			c-10.193,0-18.437,10.179-18.437,22.758C334.58,338.288,342.823,348.467,353.017,348.467z"/>
		<path d="M353.017,430.676h117.428c10.193,0,18.437-10.18,18.437-22.759s-8.248-22.759-18.437-22.759H353.017
			c-10.193,0-18.437,10.18-18.437,22.759S342.823,430.676,353.017,430.676z"/>
		<path d="M353.017,512.89h117.428c10.193,0,18.437-10.18,18.437-22.759c0-12.58-8.248-22.759-18.437-22.759H353.017
			c-10.193,0-18.437,10.179-18.437,22.759C334.58,502.71,342.823,512.89,353.017,512.89z"/>
		<path d="M145.032,266.258H262.46c10.193,0,18.436-10.179,18.436-22.759s-8.248-22.759-18.436-22.759H145.032
			c-10.194,0-18.437,10.179-18.437,22.759C126.596,256.074,134.838,266.258,145.032,266.258z"/>
		<path d="M145.032,348.467H262.46c10.193,0,18.436-10.179,18.436-22.759c0-12.579-8.248-22.758-18.436-22.758H145.032
			c-10.194,0-18.437,10.179-18.437,22.758C126.596,338.288,134.838,348.467,145.032,348.467z"/>
		<path d="M145.032,430.676H262.46c10.193,0,18.436-10.18,18.436-22.759s-8.248-22.759-18.436-22.759H145.032
			c-10.194,0-18.437,10.18-18.437,22.759S134.838,430.676,145.032,430.676z"/>
		<path d="M145.032,512.89H262.46c10.193,0,18.436-10.18,18.436-22.759c0-12.58-8.248-22.759-18.436-22.759H145.032
			c-10.194,0-18.437,10.179-18.437,22.759C126.596,502.71,134.838,512.89,145.032,512.89z"/>
	</g>
</g>
    </symbol>

  <!-- wheel icon -->
  <symbol id="icon-wheel" viewBox="0 0 512 512" xml:space="preserve" fill="currentColor">
  <path d="M256,64.6C150.46,64.6,64.6,150.46,64.6,256S150.46,447.4,256,447.4,447.4,361.54,447.4,256,361.54,64.6,256,64.6Zm0,366.8c-96.72,0-175.4-78.68-175.4-175.4S159.28,80.6,256,80.6,431.4,159.28,431.4,256,352.72,431.4,256,431.4ZM392.13,177.77c-43.13-75.07-139.3-101-214.36-57.9C103.54,162.52,77.33,257,118.45,331.7l.1.17c.43.79.87,1.58,1.32,2.36A157,157,0,0,0,392.13,177.77Zm-206.39-44c67.42-38.74,153.78-15.41,192.52,52A139.83,139.83,0,0,1,395.81,274l-86.5-31.48a47.62,47.62,0,0,0-46.73-40.38H249.34a47.62,47.62,0,0,0-46.73,40.38L116.15,274A141.22,141.22,0,0,1,185.74,133.74ZM382.63,318l-72.81-26.5V259.75l83,30.19c-.23.94-.47,1.88-.72,2.81A143.45,143.45,0,0,1,382.63,318Zm-253.29,0a140.56,140.56,0,0,1-10.22-28l83-30.19v31.74Zm7.95,14.14,65.93-24A47.3,47.3,0,0,0,218.91,334,16.93,16.93,0,0,1,225,346.92v46.57A140.67,140.67,0,0,1,137.29,332.11Zm103.75,64c0-.06,0-.13,0-.19v-49a32.9,32.9,0,0,0-11.8-25.16A31.2,31.2,0,0,1,218.1,297.9V248.54a31.47,31.47,0,0,1,31.24-30.39h13.24a31.47,31.47,0,0,1,31.24,30.41c0,.28,0,.56,0,.83V297.9a31.22,31.22,0,0,1-11.12,23.86,32.91,32.91,0,0,0-11.81,25.16v48.51c0,.26,0,.52,0,.78A140.2,140.2,0,0,1,241,396.15Zm85.22-17.89a140.33,140.33,0,0,1-39.37,15.34V346.92A16.94,16.94,0,0,1,293,334a47.3,47.3,0,0,0,15.69-25.87l66,24A140.12,140.12,0,0,1,326.26,378.26ZM286.87,256A30.92,30.92,0,1,0,256,286.93,30.95,30.95,0,0,0,286.87,256ZM256,270.93A14.92,14.92,0,1,1,270.87,256,14.93,14.93,0,0,1,256,270.93Z"/>
      </symbol>
</svg>
